PathFileType	4	(X/Y/Z)	Patient3_L_KneeIso_Processed.trc
DataRate	CameraRate	NumFrames	NumMarkers	Units	OrigDataRate	OrigDataStartFrame	OrigNumFrames
100.000000000000	100.000000000000	7	33	mm	100.000000000000	189	       301
Frame#	Time	L.Toe			R.Toe			L.Midfoot.Superior			Neck			R.Midfoot.Superior			R.Shoulder			L.Shank.Lateral			R.Wrist			L.Shoulder			R.Midfoot.Lateral			L.Heel			R.Heel			R.Patella			L.Wrist			R.Shank.Inferior			R.Shank.Lateral			L.Elbow			L.Asis			L.Shank.Inferior			L.Patella			L.Thigh.Lateral			L.Thigh.Superior			R.Elbow			R.Shank.Superior			L.Thigh.Inferior			R.Thigh.Superior			L.Midfoot.Lateral			R.Thigh.Lateral			L.Shank.Superior			R.Thigh.Inferior			Sacral			R.Asis			Sternum			
		X1	Y1	Z1	X2	Y2	Z2	X3	Y3	Z3	X4	Y4	Z4	X5	Y5	Z5	X6	Y6	Z6	X7	Y7	Z7	X8	Y8	Z8	X9	Y9	Z9	X10	Y10	Z10	X11	Y11	Z11	X12	Y12	Z12	X13	Y13	Z13	X14	Y14	Z14	X15	Y15	Z15	X16	Y16	Z16	X17	Y17	Z17	X18	Y18	Z18	X19	Y19	Z19	X20	Y20	Z20	X21	Y21	Z21	X22	Y22	Z22	X23	Y23	Z23	X24	Y24	Z24	X25	Y25	Z25	X26	Y26	Z26	X27	Y27	Z27	X28	Y28	Z28	X29	Y29	Z29	X30	Y30	Z30	X31	Y31	Z31	X32	Y32	Z32	X33	Y33	Z33	

189	2.880000000000	563.913441326477	58.514704346116	365.703952887005	690.408613710992	40.785948029082	588.761708430226	470.344950054565	146.198438316254	369.776760584085	482.514961384611	1484.859878916377	640.787867059494	565.447570767982	90.831606056188	590.088943781251	504.659911339470	1436.690962458401	786.942032512803	497.319638625991	410.488787532468	335.530045814939	585.891337519358	1170.242995173421	1114.225122612578	530.421468156873	1472.502831784568	501.869860065917	478.616417689923	30.687256646217	638.305655421161	286.655393399336	158.093167017350	371.676610235963	390.978881644785	37.285903199816	580.055641486064	603.769148404585	492.302162134470	648.431588079793	679.563213119929	1311.417500023254	496.647497314983	534.299182682574	214.596887161480	621.934629095822	487.782337497973	341.993918307026	706.236944915762	557.924573957976	1182.785861505992	317.584956921042	596.071559049500	986.112650852342	450.844181625098	502.143898423609	285.534890895760	386.137162093961	682.010864167188	500.557572325502	441.762511804890	590.909639870868	687.921148829072	380.851080392864	667.786708101668	769.063054914665	445.633819703005	403.900353711763	1133.562905860723	937.632324216707	570.695574087673	385.257211853092	654.885715390967	677.966536898744	640.951813339731	442.918195798061	635.454418204480	710.680062321799	691.671232439023	366.536795108224	127.850471620418	316.826825411815	544.879371404801	656.755193937326	740.039836952736	596.552328210385	411.088892330669	400.968269912581	619.683335209816	598.612615174874	666.933002165072	427.583681095932	1007.344248168439	590.540723232465	600.083336016948	970.809526425292	714.091435750767	616.448284964744	1388.121001299998	642.952561247930	
190	2.890000000000	570.331133236601	57.888297628254	365.518719332962	690.407342284596	40.792010238709	588.766782666381	475.335877441397	144.018479149712	369.686907813263	482.484919029947	1484.884882772835	640.711102906421	565.444378510649	90.829065928087	590.087201678165	504.568975373991	1436.730598531547	786.862205387191	497.980442803448	408.856709068013	335.477669660563	585.727376185500	1170.376197750245	1114.230386543360	530.452510555761	1472.525923855610	501.815577486776	478.617213673504	30.688543982124	638.303710844981	291.462438779715	152.912046472484	371.763461054822	390.978394506428	37.284989988624	580.033860978826	603.741365923576	492.307782869764	648.386392751857	679.631169563761	1311.469968189648	496.673922651894	534.305543780214	214.595132366345	621.880516396955	487.742683926288	341.995030395390	706.171214159337	558.101300011606	1182.791988054831	317.571766953793	596.095296388823	986.186466963508	450.789078884816	504.904209684827	283.865123866444	386.001911027046	681.383322093350	500.879107506272	441.809498733555	590.536548776625	688.008680807717	380.683106677868	667.529084640109	769.015842345339	445.564848813965	403.797974602969	1133.623494962390	937.584971511296	570.685883850982	385.267040364197	654.837251309092	677.303547465228	640.925190963276	442.883796511348	635.406595172129	710.679112707997	691.625517012187	371.793963065820	123.978274847155	316.850475330434	544.833444791833	656.760692384489	739.983894689839	597.219488945164	410.866182204171	400.792857684624	619.643350968976	598.608834211637	666.893012478973	427.572125610449	1007.379795004520	590.459878450402	600.039139595888	970.806949610400	714.049631304967	616.435817803597	1388.178044881992	642.949167543801	
191	2.900000000000	576.710053914270	57.352987213949	365.367136768960	690.405654057751	40.798259623335	588.771379061172	480.321627121000	141.918249024790	369.633558446145	482.461876988149	1484.910623112358	640.639311088446	565.439983092957	90.825384729273	590.084685715502	504.479825552935	1436.769690292289	786.781725369087	498.639484737097	407.240353732124	335.440566608281	585.567155249909	1170.511781585861	1114.238471358152	530.491089130900	1472.549673107882	501.766888815037	478.619351609158	30.691091029812	638.303589846242	296.312901860660	147.832532002259	371.904829821783	390.977341535415	37.284605908972	580.015919474544	603.711337965114	492.314645112356	648.328575514640	679.701642098686	1311.518472104566	496.703619900861	534.315788908865	214.593524728620	621.817184918760	487.712330687178	341.993401241276	706.099309941834	558.278041132942	1182.801677344275	317.558639197048	596.105040999841	986.261377388287	450.731746081581	507.663333543983	282.246865953937	385.889439413042	680.729290651698	501.219449839939	441.848336974558	590.132149244261	688.097807682735	380.503324866956	667.244856611793	768.965090193253	445.478473867730	403.697143922803	1133.686357038580	937.544385484843	570.678768787951	385.277748065319	654.778860083813	676.606159516720	640.901219304054	442.828768445796	635.357293067471	710.679216728213	691.566418599695	377.067091449299	120.197478567366	316.920964667071	544.792719956963	656.763616085974	739.921347170596	597.872488898233	410.662692526508	400.619217327336	619.600575113031	598.605967666046	666.840231818555	427.551958249569	1007.414878499959	590.385155272797	599.991582859563	970.803257760889	714.005758854908	616.427780001484	1388.230953124668	642.949202921928	
192	2.910000000000	583.038989485884	56.909093402931	365.250603860251	690.403565849808	40.804547807180	588.775585363630	485.293516796813	139.902060318754	369.618126910652	482.445317618691	1484.936749073590	640.572148408892	565.434300128128	90.820383947385	590.081626366008	504.392746610378	1436.807591896120	786.701043801920	499.299206784433	405.641494088876	335.420317355250	585.412521374246	1170.648764072407	1114.248485659214	530.536296083853	1472.573757709310	501.723159196602	478.622788001703	30.694845048865	638.305257559182	301.197145223309	142.864490689234	372.102112482573	390.975792941471	37.284767148022	580.001881869350	603.679547313180	492.322711836810	648.257997423781	679.773182208930	1311.562221336224	496.735513615348	534.329637141535	214.591680068043	621.744856069105	487.691744226975	341.988935588878	706.021624430980	558.452497798273	1182.814649663711	317.544697826422	596.101042832104	986.337032500825	450.672189357537	510.417041301065	280.682868447813	385.802164356468	680.053212397582	501.579109897677	441.881233764992	589.699919827732	688.187623893160	380.313859016914	666.936815799359	768.911235454690	445.375276970509	403.598688710561	1133.750605062022	937.510442173261	570.674610335472	385.289310964829	654.710780636073	675.878184448890	640.880222021179	442.754842475658	635.307799057302	710.680613489590	691.493068546026	382.345918424240	116.515726088938	317.039150067638	544.758888937608	656.764089242575	739.852671319717	598.512882353337	410.478044634829	400.450038855261	619.556014047397	598.604158581019	666.773929344040	427.523692397799	1007.448464043067	590.317067632623	599.941495718541	970.798834052801	713.959656231805	616.423454170593	1388.278802200307	642.951715902666	
193	2.920000000000	589.305988208962	56.556319403381	365.169059641384	690.401104812910	40.810765221455	588.779488829368	490.242195846355	137.973907357311	369.641098326001	482.434559214795	1484.962910023047	640.509185158388	565.427292170961	90.813968735801	590.078281952789	504.307963521564	1436.843695420746	786.620727749950	499.961338372355	404.062232450746	335.418317924995	585.265325413311	1170.786198138520	1114.259575725928	530.587020267754	1472.597821219025	501.683655304273	478.627368190751	30.699637828382	638.308546182683	306.104696039513	138.017836205236	372.356068784025	390.974068935809	37.285437315729	579.991760234990	603.646515623171	492.331894443457	648.175185791314	679.844318297292	1311.600565180422	496.768597173076	534.346669458800	214.589281795643	621.664246835913	487.680944971633	341.981647283854	705.938956969225	558.622445784218	1182.830414517704	317.529290214424	596.083691496368	986.412890664107	450.610502849110	513.160649743744	279.175797099956	385.741794563703	679.359589403726	501.958273173169	441.909873502731	589.243374460568	688.277260259315	380.116822754488	666.607805210589	768.854701183817	445.256265368301	403.503367066975	1133.815398630182	937.483065474008	570.673586093526	385.301649050488	654.633773580667	675.123805344795	640.862505266301	442.663726829967	635.259217626007	710.683490455221	691.405378258800	387.619168306993	112.940732812072	317.205168355673	544.733071135215	656.762312131269	739.778723454228	599.141909988672	410.311828424745	400.287576604203	619.510636668735	598.603506818785	666.694151659198	427.487947533988	1007.479641710022	590.256097700482	599.889639941627	970.794034302309	713.911263879774	616.421980765272	1388.320826289912	642.955796220616	
194	2.930000000000	595.498782120198	56.293648028214	365.121386015869	690.398305568230	40.816840818465	588.783169649505	495.157918125763	136.137221498882	369.702187251148	482.428786689754	1484.988767031144	640.449939316656	565.418964260008	90.806127071243	590.074922412895	504.225631101932	1436.877446160189	786.541414362293	500.626925000990	402.504870755726	335.435659460656	585.127382435478	1170.923179767770	1114.270928967112	530.641974624249	1472.621497385513	501.647587913056	478.632864680854	30.705220011039	638.313198438360	311.024508658929	133.302128211322	372.666728217401	390.972738692244	37.286504781895	579.985541384692	603.612771308569	492.342048406436	648.081317109774	679.913590571735	1311.633030718126	496.801931106489	534.366348767968	214.586093536756	621.576523146178	487.679530473753	341.971654890871	705.852460007774	558.785758103510	1182.848321150597	317.511986640394	596.053517306706	986.488228795306	450.546898194927	515.889165782731	277.728085908983	385.709345722948	678.652852007724	502.356764126773	441.935331927813	588.765938639595	688.365919323846	379.914236750627	666.260624731760	768.795883430602	445.122914496978	403.411866474192	1133.879950462407	937.462216423884	570.675669353305	385.314629762849	654.549080214626	674.347485143371	640.848342662135	442.557087030479	635.212429922776	710.687948737632	691.304132123020	392.874972224593	109.479868180251	317.418491221659	544.715703329067	656.758538423346	739.700698084754	599.760460473731	410.163597924361	400.133643658074	619.465326010315	598.604051803232	666.601766872765	427.445414399208	1007.507657682871	590.202667647046	599.836663611538	970.789168398371	713.860656165036	616.422403622019	1388.356458798069	642.960592887340	
195	2.940000000000	601.605201787125	56.119274590862	365.105882921746	690.395208146412	40.822741507467	588.786695189510	500.030817983882	134.394676005501	369.800517280050	482.427091228240	1485.014002270308	640.393915621503	565.409358829172	90.796925431865	590.071814674394	504.145843805070	1436.908354994110	786.463770087096	501.296422818240	400.971783478862	335.473001996056	585.000424306490	1171.058839710762	1114.281771614807	530.699739660270	1472.644431789838	501.614157802926	478.639016041098	30.711297569283	638.318913625016	315.945222382478	128.726188276968	373.033315123631	390.972602682855	37.287763683875	579.983211228508	603.578825071132	492.352974342595	647.978168872536	679.979586931848	1311.659340306645	496.834642283314	534.388037420579	214.581966469733	621.483241746982	487.686712131795	341.959174579797	705.763578529051	558.940430266580	1182.867617641944	317.492561172709	596.011183301732	986.562172371939	450.481723148475	518.597429010246	276.341808804531	385.705187838645	677.937247974267	502.774019130523	441.958046591588	588.270848791955	688.452902754473	379.707969085786	665.897969023767	768.735148504624	444.977144852479	403.324802899504	1133.943530705415	937.447868993001	570.680636622631	385.328073256980	654.458361735019	673.553903057093	640.837959727947	442.436528827977	635.168071015298	710.693983188640	691.191009493683	398.101299201084	106.139758936217	317.677993904763	544.706493840690	656.753055861395	739.620062928197	600.369060404914	410.032865164396	399.989635501503	619.420840054655	598.605767199759	666.498444627592	427.396814785120	1007.531928121130	590.157115136127	599.783065807282	970.784489671806	713.808064094679	616.423723585949	1388.385352070125	642.965329320084	
